<svg viewBox="0 0 1320 200" x="0" y="0" fill="none" xmlns="http://www.w3.org/2000/svg"><g id="Frame 280" xmlns="http://www.w3.org/2000/svg">
<g id="google">
<path id="Vector_18" d="M47.479,77h1.262c4.381,0.09 8.691,1.81 11.787,4.84c-1.143,1.14 -2.31,2.23 -3.429,3.37c-1.739,-1.53 -3.834,-2.72 -6.12,-3.13c-3.381,-0.7 -7.024,-0.07 -9.858,1.8c-3.096,1.98 -5.191,5.31 -5.644,8.88c-0.5,3.53 0.524,7.24 2.882,9.97c2.262,2.67 5.715,4.34 9.286,4.45c3.334,0.19 6.811,-0.81 9.239,-3.08c1.905,-1.6 2.786,-4.03 3.072,-6.4c-3.953,0 -7.905,0.02 -11.858,0v-4.77h16.644c0.858,5.12 -0.381,10.89 -4.381,14.55c-2.667,2.6 -6.358,4.13 -10.12,4.43c-3.643,0.35 -7.406,-0.32 -10.644,-2.04c-3.881,-2.02 -6.977,-5.42 -8.501,-9.43c-1.429,-3.69 -1.452,-7.86 -0.119,-11.57c1.214,-3.39 3.548,-6.38 6.548,-8.46c2.882,-2.07 6.382,-3.2 9.954,-3.41z" fill="#B8BCC2"/>
<path id="Vector_19" d="M141,78h5v33.99c-1.659,0 -3.341,0.03 -5,-0.02c0.023,-11.31 0,-22.64 0,-33.97z" fill="#B8BCC2"/>
<path id="Vector_20" d="M75.259,89.21c3.116,-0.59 6.492,0.07 9.066,1.94c2.337,1.66 3.966,4.26 4.462,7.1c0.638,3.29 -0.165,6.89 -2.29,9.49c-2.29,2.91 -6.044,4.47 -9.704,4.24c-3.352,-0.19 -6.61,-1.87 -8.593,-4.62c-2.243,-3.03 -2.786,-7.19 -1.559,-10.74c1.228,-3.81 4.699,-6.72 8.618,-7.41zM75.967,93.71c-1.275,0.33 -2.455,1.06 -3.305,2.1c-2.29,2.75 -2.149,7.22 0.378,9.78c1.44,1.46 3.612,2.15 5.619,1.75c1.865,-0.33 3.494,-1.59 4.391,-3.24c1.558,-2.82 1.11,-6.7 -1.275,-8.9c-1.535,-1.42 -3.777,-2.01 -5.808,-1.49z" fill="#B8BCC2"/>
<path id="Vector_21" d="M100.258,89.21c3.568,-0.68 7.466,0.31 10.136,2.82c4.348,3.91 4.82,11.22 1.111,15.72c-2.245,2.84 -5.883,4.4 -9.475,4.24c-3.426,-0.1 -6.804,-1.8 -8.836,-4.62c-2.292,-3.1 -2.788,-7.36 -1.489,-10.98c1.3,-3.7 4.702,-6.52 8.553,-7.18zM100.967,93.71c-1.276,0.33 -2.457,1.07 -3.308,2.08c-2.268,2.7 -2.173,7.11 0.26,9.69c1.441,1.54 3.686,2.29 5.765,1.87c1.843,-0.36 3.497,-1.59 4.395,-3.25c1.536,-2.84 1.087,-6.72 -1.323,-8.92c-1.536,-1.42 -3.781,-1.99 -5.789,-1.47z" fill="#B8BCC2"/>
<path id="Vector_22" d="M121.536,90.57c2.717,-1.69 6.331,-2.16 9.26,-0.7c0.921,0.4 1.677,1.08 2.409,1.76c0.024,-0.64 0,-1.29 0.024,-1.95c1.582,0.02 3.165,0 4.771,0.02v20.68c-0.024,3.12 -0.827,6.43 -3.094,8.7c-2.48,2.51 -6.283,3.28 -9.708,2.77c-3.662,-0.54 -6.85,-3.19 -8.268,-6.54c1.418,-0.68 2.906,-1.22 4.37,-1.86c0.827,1.93 2.504,3.57 4.606,3.94c2.102,0.38 4.535,-0.14 5.905,-1.87c1.465,-1.78 1.465,-4.22 1.394,-6.4c-1.087,1.05 -2.338,1.99 -3.85,2.34c-3.283,0.92 -6.897,-0.21 -9.425,-2.41c-2.551,-2.21 -4.063,-5.61 -3.921,-8.98c0.071,-3.83 2.244,-7.51 5.527,-9.5zM126.426,93.57c-1.441,0.24 -2.787,1.03 -3.709,2.14c-2.22,2.62 -2.22,6.82 0.024,9.4c1.276,1.52 3.331,2.37 5.315,2.15c1.866,-0.18 3.59,-1.36 4.511,-2.97c1.559,-2.75 1.299,-6.47 -0.803,-8.87c-1.299,-1.47 -3.378,-2.2 -5.338,-1.85z" fill="#B8BCC2"/>
<path id="Vector_23" d="M152.551,91.81c2.811,-2.65 7.144,-3.55 10.751,-2.16c3.419,1.3 5.597,4.59 6.698,7.98c-5.082,2.13 -10.141,4.23 -15.224,6.36c0.703,1.35 1.78,2.58 3.232,3.08c2.038,0.73 4.474,0.47 6.184,-0.9c0.679,-0.52 1.217,-1.21 1.733,-1.87c1.288,0.87 2.576,1.73 3.864,2.6c-1.827,2.77 -4.895,4.71 -8.197,5.02c-3.654,0.45 -7.542,-0.97 -9.907,-3.86c-3.888,-4.54 -3.514,-12.16 0.866,-16.25zM155.057,96.18c-0.796,1.16 -1.124,2.58 -1.101,3.98c3.397,-1.42 6.793,-2.84 10.189,-4.28c-0.562,-1.33 -1.921,-2.13 -3.303,-2.35c-2.225,-0.4 -4.543,0.81 -5.785,2.65z" fill="#B8BCC2"/>
</g>
<g id="dribbble">
<path id="Vector_24" d="M296.775,96.08c1.602,0 2.901,-1.33 2.901,-2.97c0,-1.64 -1.299,-2.97 -2.901,-2.97c-1.602,0 -2.901,1.33 -2.901,2.97c0,1.64 1.299,2.97 2.901,2.97zM392.522,106.23c-0.442,-0.32 -0.782,-0.37 -1.065,0.25c-4.873,10.8 -13.084,5.41 -12.268,5.88c1.821,-0.85 6.611,-4.78 5.887,-10.21c-0.439,-3.32 -3.222,-4.79 -6.175,-4.26c-5.156,0.92 -7.052,6.61 -6.087,11.64c0.169,0.87 0.471,1.58 0.773,2.28c-5.826,4.85 -8.14,-4.34 -8.402,-5.44c-0.011,-0.05 4.498,-3.9 5.752,-13.07c1.314,-9.6 -1.68,-11.35 -4.741,-11.3c-5.666,0.1 -7.197,12.22 -5.14,22.32c-0.172,0.04 -0.974,0.5 -2.262,0.55c-0.927,-2.99 -4.888,-5.6 -5.925,-4.6c-2.594,2.53 0.63,7.46 2.898,7.84c-1.363,8.59 -9.884,6.47 -8.298,-4.29c2.775,-5.28 4.886,-13.12 4.509,-17.85c-0.133,-1.68 -1.344,-3.92 -4.082,-3.81c-5.267,0.21 -5.84,12.33 -5.222,20.93c-0.031,-0.21 -0.324,1.04 -2.482,1.67c-0.511,-2.9 -5.073,-5.81 -6.147,-4.41c-2.011,2.62 1.473,7.29 3.124,7.61c-1.363,8.59 -9.883,6.46 -8.297,-4.3c2.775,-5.27 4.885,-13.11 4.508,-17.85c-0.133,-1.67 -1.344,-3.92 -4.082,-3.81c-5.267,0.22 -5.839,12.34 -5.222,20.94c-0.031,-0.22 -0.331,1.08 -2.577,1.69c-0.075,-3.76 -4.655,-5.48 -5.755,-4.28c-1.96,2.14 0.449,6.53 2.678,7.61c-1.362,8.59 -9.883,6.46 -8.297,-4.3c2.775,-5.27 4.885,-13.11 4.509,-17.85c-0.134,-1.67 -1.344,-3.92 -4.083,-3.81c-5.266,0.22 -5.69,12.94 -5.073,21.55c-1.734,7.6 -7.552,17.1 -6.796,-1.93c0.075,-1.33 0.156,-1.84 -0.494,-2.34c-0.487,-0.39 -1.595,-0.2 -2.201,-0.19c-0.736,0.03 -0.921,0.48 -1.083,1.14c-0.379,1.72 -0.447,3.39 -0.501,5.67c-0.036,1.06 -0.119,1.56 -0.52,3.01c-0.4,1.45 -2.682,4.1 -3.932,3.66c-1.734,-0.61 -1.165,-5.62 -0.84,-9.06c0.271,-2.72 -0.596,-3.94 -2.817,-4.39c-1.3,-0.27 -2.09,-0.23 -3.444,-0.67c-1.281,-0.41 -1.57,-2.89 -4.301,-2.06c-1.494,0.45 -0.534,3.69 -0.893,6.09c-1.765,11.81 -5.437,12.13 -7.141,6.4c7.673,-19.24 2.22,-26.82 -0.973,-26.82c-3.325,0 -7.126,2.34 -5.516,17.34c-0.783,-0.23 -1.023,-0.36 -1.88,-0.36c-4.845,0 -8.146,4.01 -8.146,8.95c0,4.95 3.301,8.96 8.146,8.96c2.86,0 4.869,-1.33 6.389,-3.39c0.993,1.45 2.201,3.41 4.411,3.32c6.586,-0.26 8.501,-14.09 8.727,-14.86c0.705,0.11 1.371,0.32 2.021,0.43c1.083,0.17 1.162,0.61 1.137,1.73c-0.287,9.4 1.409,12.69 5.255,12.69c2.143,0 4.053,-2.15 5.369,-3.69c0.982,2.07 2.548,3.63 4.649,3.69c5.091,0.13 7.04,-8.17 6.862,-7.08c-0.139,0.86 1.652,7.03 6.892,7.06c6.492,0.03 7.699,-7.28 7.843,-8.5c0.018,-0.25 0.026,-0.22 0,0l-0.005,0.07c2.061,-0.39 3.124,-1.52 3.124,-1.52c0,0 1.655,10.06 7.785,9.95c6.365,-0.12 7.566,-6.73 7.723,-8.01c0.021,-0.31 0.033,-0.27 0,0c-0.001,0.01 -0.001,0.02 -0.002,0.03c2.448,-0.91 3.092,-1.82 3.092,-1.82c0,0 1.315,9.86 7.785,9.95c5.765,0.08 7.901,-5.97 7.914,-8.49c0.972,0.01 2.771,-0.6 2.729,-0.63c0,0 2.112,8.63 8.009,9.07c2.769,0.21 4.846,-1.6 6.03,-2.42c2.782,2.31 12.048,5.25 17.898,-4.9c0.826,-1.45 -0.95,-3.18 -1.261,-3.4zM261.912,113.6c-2.826,0 -4.639,-2.68 -4.639,-5.56c0,-2.88 1.664,-5.56 4.491,-5.56c1.272,0 1.979,0.14 2.97,1.03c0.18,0.72 0.689,2.39 0.937,3.15c0.332,1.02 0.726,1.88 1.124,2.82c-0.568,2.42 -2.433,4.12 -4.883,4.12zM268.801,103.59c-0.118,-0.19 -0.093,-0.07 -0.225,-0.25c-0.518,-1.45 -1.516,-4.67 -1.632,-8.32c-0.131,-4.14 0.543,-8.99 2.529,-8.99c1.346,0 2.776,9.83 -0.672,17.56zM308.603,99.28c-0.319,-2.45 -0.336,-13.4 2.231,-13.1c1.418,0.59 -0.898,10.92 -2.231,13.1zM327.349,99.28c-0.319,-2.45 -0.335,-13.4 2.232,-13.1c1.418,0.59 -0.899,10.92 -2.232,13.1zM345.947,99.43c-0.319,-2.45 -0.335,-13.4 2.232,-13.1c1.417,0.59 -0.899,10.92 -2.232,13.1zM366.479,85.54c2.347,-0.25 2.25,10.24 -2.461,16.87c-0.608,-2.4 -1.539,-16.05 2.461,-16.87zM376.345,108.11c-0.754,-3.89 1.194,-6.45 3.202,-6.73c0.702,-0.12 1.719,0.35 1.922,1.22c0.333,1.64 -0.049,4.07 -4.543,7.15c0.006,0.03 -0.413,-0.77 -0.581,-1.64z" fill="#B8BCC2"/>
</g>
<g id="linkedin">
<path id="Vector_25" d="M581,84.65c0,-1.46 1.225,-2.65 2.735,-2.65h31.53c1.511,0 2.735,1.19 2.735,2.65v31.7c0,1.46 -1.224,2.65 -2.735,2.65h-31.53c-1.51,0 -2.735,-1.19 -2.735,-2.65v-31.7z" fill="#006699"/>
<path id="Vector_26" d="M478,113h15.333v-5.09h-9.783v-19.4h-5.55zM501.096,113v-16.87h-5.549v16.87zM498.322,93.83c1.935,0 3.139,-1.3 3.139,-2.92c-0.035,-1.65 -1.204,-2.91 -3.102,-2.91c-1.899,0 -3.14,1.26 -3.14,2.91c0,1.62 1.205,2.92 3.067,2.92zM503.673,113h5.549v-9.42c0,-0.5 0.036,-1.01 0.183,-1.37c0.4,-1.01 1.314,-2.05 2.847,-2.05c2.008,0 2.812,1.55 2.812,3.81v9.03h5.548v-9.67c0,-5.18 -2.737,-7.59 -6.389,-7.59c-2.993,0 -4.308,1.69 -5.038,2.84h0.037v-2.45h-5.549c0.073,1.58 0,16.87 0,16.87zM528.442,88.51h-5.55v24.49h5.55v-5.47l1.386,-1.76l4.345,7.23h6.827l-7.301,-10.47l6.388,-7.13h-6.68c0,0 -4.563,6.38 -4.965,7.13z" fill="black"/>
<path id="Vector_27" d="M556.085,105.83c0.075,-0.42 0.186,-1.22 0.186,-2.12c0,-4.21 -2.229,-8.48 -8.097,-8.48c-6.277,0 -9.174,4.76 -9.174,9.07c0,5.33 3.529,8.66 9.694,8.66c2.452,0 4.716,-0.34 6.574,-1.07l-0.743,-3.57c-1.523,0.48 -3.083,0.72 -5.014,0.72c-2.637,0 -4.939,-1.03 -5.125,-3.24l11.699,0.03zM544.349,102.17c0.149,-1.38 1.115,-3.43 3.529,-3.43c2.562,0 3.157,2.18 3.157,3.43h-6.685zM570.206,89v8.18h-0.075c-0.817,-1.15 -2.525,-1.91 -4.79,-1.91c-4.346,0 -8.171,3.33 -8.135,9.02c0,5.27 3.455,8.71 7.763,8.71c2.34,0 4.568,-0.97 5.683,-2.85h0.111l0.223,2.47h5.014c-0.074,-1.15 -0.149,-3.12 -0.149,-5.07v-18.55h-5.646zM570.206,105.09c0,0.41 -0.037,0.83 -0.112,1.18c-0.333,1.49 -1.67,2.53 -3.305,2.53c-2.339,0 -3.862,-1.8 -3.862,-4.65c0,-2.67 1.3,-4.82 3.9,-4.82c1.745,0 2.97,1.14 3.305,2.56c0.074,0.32 0.074,0.67 0.074,0.98v2.22z" fill="black"/>
<path id="Vector_28" d="M591.902,113v-16.87h-5.573v16.87h5.574zM589.116,93.83c1.944,0 3.154,-1.3 3.154,-2.92c-0.037,-1.65 -1.21,-2.91 -3.116,-2.91c-1.908,0 -3.154,1.26 -3.154,2.91c0,1.62 1.209,2.92 3.08,2.92h0.036zM594.987,113h5.573v-9.42c0,-0.5 0.037,-1.01 0.184,-1.37c0.403,-1 1.32,-2.05 2.86,-2.05c2.016,0 2.823,1.55 2.823,3.82v9.02h5.573v-9.67c0,-5.18 -2.749,-7.59 -6.416,-7.59c-3.007,0 -4.327,1.69 -5.06,2.84h0.037v-2.45h-5.573c0.072,1.58 -0.001,16.87 -0.001,16.87z" fill="white"/>
</g>
<g id="amazon">
<path id="Vector_29" d="M731.79,104.1v13.61c0,0.22 -0.08,0.43 -0.24,0.59c-0.15,0.15 -0.36,0.24 -0.58,0.24h-4.28c-0.22,0 -0.43,-0.09 -0.58,-0.24c-0.16,-0.16 -0.25,-0.37 -0.25,-0.59v-22.14c0,-0.22 0.09,-0.43 0.25,-0.58c0.15,-0.16 0.36,-0.25 0.58,-0.25h3.96c0.22,0 0.43,0.09 0.58,0.25c0.16,0.15 0.25,0.36 0.25,0.58v3.12c0,0 1.41,-4.45 5.61,-4.45c0,0 4.15,-0.5 5.84,4.13c0,0 1.41,-4.13 5.7,-4.13c0,0 6.38,-0.38 6.38,6.25l0.05,3.66v13.61c0,0.22 -0.09,0.43 -0.25,0.58c-0.15,0.16 -0.36,0.25 -0.58,0.25h-4.28c-0.22,0 -0.43,-0.09 -0.58,-0.25c-0.16,-0.15 -0.25,-0.36 -0.25,-0.58l-0.04,-14.85c0.13,-3.36 -2.58,-3.12 -2.58,-3.12c-3.41,0.06 -3.08,4.36 -3.08,4.36v13.61c0,0.22 -0.09,0.43 -0.24,0.58c-0.16,0.16 -0.37,0.25 -0.59,0.25h-4.27c-0.22,0 -0.43,-0.09 -0.59,-0.25c-0.15,-0.15 -0.24,-0.36 -0.24,-0.58v-14.52c0,0 0.25,-3.48 -2.79,-3.48c0,0 -3.01,-0.4 -2.91,4.34zM842,104.06v13.61c0,0.22 -0.09,0.43 -0.24,0.59c-0.16,0.15 -0.37,0.24 -0.59,0.24l-4.44,0.09c-0.22,0 -0.43,-0.09 -0.59,-0.25c-0.15,-0.15 -0.24,-0.36 -0.24,-0.58v-14.52c0,0 0.25,-3.48 -2.79,-3.48c0,0 -2.91,-0.14 -2.91,5.32v12.63c0,0.22 -0.09,0.43 -0.24,0.59c-0.16,0.15 -0.37,0.24 -0.59,0.24h-4.27c-0.22,0 -0.43,-0.09 -0.59,-0.24c-0.15,-0.16 -0.24,-0.37 -0.24,-0.59v-22.14c0,-0.22 0.09,-0.43 0.24,-0.58c0.16,-0.16 0.37,-0.25 0.59,-0.25h3.95c0.22,0 0.43,0.09 0.59,0.25c0.16,0.15 0.24,0.36 0.24,0.58v3.12c0,0 1.42,-4.45 5.61,-4.45c0,0 4.5,-0.68 6.01,4.04c0,0 0.5,0.98 0.5,5.78zM811.13,94.15c-5.47,0 -9.9,4.63 -9.9,12.43c0,6.86 3.42,12.42 9.9,12.42c6.11,0 9.9,-5.56 9.9,-12.42c0,-7.66 -4.43,-12.43 -9.9,-12.43zM814.58,106.85c0,2.94 -0.36,4.49 -0.36,4.49c-0.52,3.11 -2.76,3.11 -3.09,3.09c-0.36,0.02 -2.62,-0.01 -3.09,-3.09c0,0 -0.36,-1.55 -0.36,-4.49v-0.49c0,-2.93 0.36,-4.49 0.36,-4.49c0.47,-3.07 2.73,-3.1 3.09,-3.09c0.33,-0.02 2.57,-0.01 3.09,3.09c0,0 0.36,1.56 0.36,4.49zM798.75,98.66v-3.18c0,-0.22 -0.09,-0.43 -0.24,-0.58c-0.16,-0.16 -0.37,-0.25 -0.59,-0.25h-14.13c-0.22,0 -0.43,0.09 -0.59,0.25c-0.15,0.15 -0.24,0.36 -0.24,0.58v3.16c0,0.22 0.09,0.43 0.24,0.58c0.16,0.16 0.37,0.25 0.59,0.25h7.37l-8.72,12.72c0,0 -0.35,0.51 -0.34,1.08v3.87c0,0 -0.05,1.33 1.44,0.56c0,0 2.66,-1.62 7.12,-1.62c0,0 4.4,-0.05 7.34,1.76c0,0 1.22,0.55 1.22,-0.67v-3.37c0,0 0.11,-0.89 -1.05,-1.45c0,0 -3.38,-1.86 -7.81,-1.55zM722.56,114.58l-1.33,-2.04c-0.43,-0.77 -0.4,-1.62 -0.4,-1.62v-9.45c0.18,-8.16 -8.82,-7.45 -8.82,-7.45c-8,0 -9.19,6.25 -9.19,6.25c-0.33,1.26 0.64,1.29 0.64,1.29l3.91,0.4c0,0 0.67,0.15 0.91,-0.64c0,0 0.52,-2.73 3.4,-2.73c3.13,0 3.1,2.7 3.1,2.7v2.26c-6.26,0.21 -9.16,1.96 -9.16,1.96c-3.86,2.2 -3.62,6.57 -3.62,6.57c0,7.12 6.76,6.81 6.76,6.81c4.31,0 6.87,-3.18 6.87,-3.18c0.76,1.35 2.16,2.63 2.16,2.63c0.7,0.77 1.43,0.12 1.43,0.12l3.16,-2.71c0.7,-0.52 0.18,-1.17 0.18,-1.17zM710.86,114.5c-2.03,0 -2.78,-2.03 -2.45,-4.03c0.34,-1.99 2.09,-3.56 6.37,-3.51v1.21c0.15,5.3 -2.23,6.33 -3.92,6.33zM779.38,114.58l-1.34,-2.04c-0.43,-0.77 -0.4,-1.62 -0.4,-1.62v-9.45c0.19,-8.16 -8.82,-7.45 -8.82,-7.45c-8,0 -9.18,6.25 -9.18,6.25c-0.34,1.26 0.63,1.29 0.63,1.29l3.92,0.4c0,0 0.66,0.15 0.91,-0.64c0,0 0.51,-2.73 3.39,-2.73c3.13,0 3.1,2.7 3.1,2.7v2.26c-6.25,0.21 -9.15,1.96 -9.15,1.96c-3.87,2.2 -3.62,6.57 -3.62,6.57c0,7.12 6.75,6.81 6.75,6.81c4.32,0 6.87,-3.18 6.87,-3.18c0.76,1.35 2.16,2.63 2.16,2.63c0.7,0.77 1.43,0.12 1.43,0.12l3.16,-2.71c0.7,-0.52 0.19,-1.17 0.19,-1.17zM767.68,114.5c-2.03,0 -2.79,-2.03 -2.45,-4.03c0.34,-1.99 2.09,-3.56 6.36,-3.51v1.21c0.15,5.3 -2.22,6.33 -3.91,6.33z" fill="#B8BCC2"/>
<g id="Group">
<path id="Vector_30" d="M790.27,132.06c0,0 -0.36,0.62 0.08,0.76c0,0 0.49,0.19 1.11,-0.38c0,0 4.5,-3.93 4.61,-11.1c0,0 0.03,-0.89 -0.32,-1.14c0,0 -1.42,-1.24 -6.49,-0.86c0,0 -4.42,0.29 -6.84,2.44c0,0 -0.21,0.19 -0.21,0.43c0,0 -0.05,0.53 1.27,0.3c0,0 4.42,-0.62 7.06,-0.3c0,0 1.35,0.16 1.73,0.63c0,0 0.63,0.51 0.3,2.22c0,0 -0.89,4.34 -2.3,7z" fill="#B8BCC2"/>
<path id="Vector_31" d="M789.37,125.19c0,0 0.66,0.85 -0.4,1.59c0,0 -11.39,9.11 -30.5,9.11c0,0 -19.68,0.97 -36.11,-13.96c0,0 -0.58,-0.5 -0.22,-0.98c0,0 0.32,-0.43 1.15,0.04c0,0 15.45,9.63 35.75,9.63c0,0 14.11,0.55 28.59,-5.64c0,0 1.15,-0.6 1.74,0.21z" fill="#B8BCC2"/>
</g>
</g>
<g id="medium">
<path id="Vector_32" d="M996.71,110.87c0,0.5 0,0.61 0.33,0.91l1.83,1.84v0.08h-8.14v-3.53c-0.82,2.32 -2.99,3.86 -5.4,3.83c-4.18,0 -7.22,-3.36 -7.22,-9.54c0,-5.79 3.28,-9.66 7.88,-9.66c2.04,-0.13 3.94,1.08 4.73,3v-7.78c0.03,-0.18 0.01,-0.36 -0.05,-0.52c-0.07,-0.17 -0.18,-0.31 -0.32,-0.42l-1.75,-1.72v-0.08l8.11,-0.98zM990.73,109.75v-11.61c-0.29,-0.37 -0.66,-0.67 -1.08,-0.87c-0.42,-0.2 -0.88,-0.3 -1.35,-0.29c-1.97,0 -3.89,1.83 -3.89,7.29c0,5.1 1.65,6.91 3.71,6.91c0.51,-0.01 1.02,-0.15 1.47,-0.4c0.46,-0.24 0.85,-0.6 1.14,-1.03zM1002.11,113.7v-15.68c0.03,-0.17 0.01,-0.35 -0.05,-0.51c-0.05,-0.17 -0.15,-0.32 -0.28,-0.43l-1.8,-1.91v-0.08h8.14v15.91c0,0.49 0,0.6 0.33,0.91l1.79,1.72v0.08zM1001.82,89.36c0,-1.86 1.46,-3.36 3.27,-3.36c1.81,0 3.28,1.5 3.28,3.36c0,1.86 -1.46,3.36 -3.28,3.36c-1.81,0 -3.27,-1.5 -3.27,-3.36zM1030.09,110.84c0,0.49 0,0.64 0.33,0.94l1.84,1.84v0.08h-8.19v-4.02c-0.75,2.54 -3.02,4.29 -5.61,4.32c-3.63,0 -5.57,-2.71 -5.57,-7.84c0,-2.48 0,-5.19 0.07,-8.23c0.03,-0.17 0.02,-0.34 -0.04,-0.5c-0.06,-0.16 -0.15,-0.3 -0.28,-0.41l-1.81,-1.85v-0.08h8.08v10.23c0,3.36 0.48,5.6 2.54,5.6c0.54,-0.04 1.07,-0.21 1.53,-0.51c0.46,-0.29 0.84,-0.7 1.11,-1.18v-11.2c0.03,-0.17 0.01,-0.35 -0.05,-0.51c-0.05,-0.17 -0.15,-0.31 -0.28,-0.43l-1.81,-1.92v-0.08h8.14zM1057.81,113.7c0,-0.61 0.11,-8.31 0.11,-10.08c0,-3.36 -0.51,-5.68 -2.82,-5.68c-0.57,0.02 -1.13,0.17 -1.64,0.45c-0.5,0.28 -0.93,0.68 -1.25,1.16c0.23,1.05 0.34,2.12 0.32,3.19c0,2.33 -0.07,5.3 -0.11,8.27c-0.03,0.17 -0.01,0.34 0.05,0.5c0.05,0.16 0.15,0.3 0.28,0.41l1.84,1.72v0.08h-8.22c0,-0.56 0.11,-8.31 0.11,-10.08c0,-3.42 -0.52,-5.68 -2.79,-5.68c-0.55,0.02 -1.09,0.19 -1.57,0.48c-0.47,0.29 -0.86,0.69 -1.14,1.18v11.42c0,0.5 0,0.61 0.33,0.91l1.79,1.72v0.08h-8.13v-15.68c0.02,-0.17 0.01,-0.34 -0.05,-0.51c-0.06,-0.16 -0.15,-0.31 -0.28,-0.43l-1.8,-1.96v-0.08h8.14v3.99c0.76,-2.63 3.16,-4.4 5.84,-4.29c2.71,0 4.54,1.55 5.32,4.48c0.86,-2.7 3.34,-4.52 6.12,-4.48c3.63,0 5.68,2.75 5.68,7.93c0,2.48 -0.07,5.3 -0.1,8.27c-0.04,0.17 -0.02,0.35 0.05,0.51c0.06,0.16 0.18,0.3 0.32,0.39l1.79,1.73v0.08zM955.51,111.26l2.42,2.36v0.08h-12.25v-0.08l2.45,-2.36c0.13,-0.11 0.23,-0.25 0.29,-0.41c0.06,-0.16 0.07,-0.33 0.04,-0.5v-15.11c0,-0.64 0,-1.5 0.11,-2.24l-8.26,21h-0.1l-8.56,-19.32c-0.18,-0.48 -0.24,-0.52 -0.36,-0.84v12.67c-0.1,0.84 0.04,1.7 0.41,2.47l3.44,4.64v0.08h-9.14v-0.08l3.44,-4.65c0.37,-0.76 0.51,-1.62 0.41,-2.46v-14c0.05,-0.69 -0.15,-1.38 -0.57,-1.92l-2.44,-3.23v-0.08h8.75l7.32,16.36l6.45,-16.36h8.56v0.08l-2.41,2.74c-0.14,0.11 -0.25,0.25 -0.31,0.42c-0.07,0.16 -0.09,0.34 -0.06,0.52v19.31c-0.03,0.17 -0.01,0.35 0.05,0.51c0.07,0.16 0.18,0.3 0.32,0.4zM965.1,103.68v0.08c0,4.8 2.41,6.72 5.25,6.72c2.36,0.09 4.55,-1.27 5.57,-3.46h0.08c-0.99,4.74 -3.85,6.98 -8.14,6.98c-4.62,0 -8.98,-2.86 -8.98,-9.48c0,-6.95 4.37,-9.73 9.2,-9.73c3.89,0 8.04,1.88 8.04,7.93v0.96zM965.1,102.72h5.39v-0.97c0,-4.93 -1,-6.24 -2.49,-6.24c-1.82,0 -2.92,1.96 -2.92,7.21z" fill="#B8BCC2"/>
</g>
<g id="spotify">
<path id="Vector_33" d="M1170.99,79c-11.59,0 -20.99,9.4 -20.99,21c0,11.6 9.4,21 20.99,21c11.6,0 21,-9.4 21,-21c0,-11.6 -9.4,-21 -21,-21zM1180.62,109.29c-0.37,0.62 -1.18,0.81 -1.8,0.43c-4.93,-3.01 -11.13,-3.69 -18.44,-2.02c-0.7,0.16 -1.41,-0.28 -1.57,-0.99c-0.16,-0.7 0.28,-1.4 0.99,-1.56c8,-1.83 14.86,-1.04 20.39,2.34c0.62,0.38 0.81,1.18 0.43,1.8zM1183.19,103.57c-0.47,0.77 -1.48,1.01 -2.25,0.54c-5.64,-3.47 -14.24,-4.47 -20.92,-2.45c-0.87,0.26 -1.78,-0.22 -2.04,-1.09c-0.26,-0.86 0.23,-1.78 1.09,-2.04c7.62,-2.31 17.1,-1.19 23.58,2.79c0.77,0.47 1.02,1.48 0.54,2.25zM1183.41,97.62c-6.76,-4.02 -17.93,-4.39 -24.39,-2.43c-1.04,0.31 -2.13,-0.27 -2.45,-1.31c-0.31,-1.04 0.27,-2.14 1.31,-2.45c7.42,-2.25 19.75,-1.82 27.54,2.81c0.93,0.55 1.24,1.76 0.68,2.69c-0.55,0.93 -1.76,1.24 -2.69,0.69zM1207.12,98.39c-3.63,-0.87 -4.27,-1.48 -4.27,-2.75c0,-1.2 1.13,-2.02 2.82,-2.02c1.63,0 3.26,0.62 4.95,1.89c0.06,0.04 0.12,0.05 0.18,0.04c0.07,-0.01 0.12,-0.04 0.16,-0.1l1.77,-2.49c0.07,-0.1 0.05,-0.25 -0.04,-0.32c-2.03,-1.63 -4.3,-2.42 -6.97,-2.42c-3.91,0 -6.64,2.35 -6.64,5.71c0,3.61 2.35,4.89 6.43,5.87c3.47,0.8 4.05,1.47 4.05,2.67c0,1.32 -1.18,2.15 -3.09,2.15c-2.11,0 -3.84,-0.72 -5.77,-2.39c-0.05,-0.04 -0.11,-0.06 -0.17,-0.05c-0.07,0 -0.12,0.03 -0.17,0.08l-1.98,2.36c-0.08,0.1 -0.07,0.25 0.02,0.33c2.25,2.01 5.01,3.07 7.99,3.07c4.22,0 6.95,-2.31 6.95,-5.88c0,-3.01 -1.8,-4.68 -6.21,-5.75zM1222.88,94.81c-1.83,0 -3.33,0.72 -4.57,2.2v-1.66c0,-0.14 -0.1,-0.24 -0.23,-0.24h-3.25c-0.13,0 -0.24,0.1 -0.24,0.24v18.45c0,0.13 0.11,0.24 0.24,0.24h3.25c0.13,0 0.23,-0.11 0.23,-0.24v-5.82c1.24,1.38 2.74,2.06 4.57,2.06c3.4,0 6.83,-2.61 6.83,-7.61c0.01,-5 -3.43,-7.62 -6.83,-7.62zM1225.94,102.43c0,2.54 -1.57,4.32 -3.81,4.32c-2.22,0 -3.9,-1.86 -3.9,-4.32c0,-2.47 1.68,-4.33 3.9,-4.33c2.21,0 3.81,1.82 3.81,4.33zM1238.53,94.81c-4.38,0 -7.8,3.37 -7.8,7.67c0,4.26 3.4,7.59 7.74,7.59c4.39,0 7.83,-3.36 7.83,-7.64c0,-4.27 -3.41,-7.62 -7.77,-7.62zM1238.53,106.78c-2.33,0 -4.08,-1.87 -4.08,-4.35c0,-2.49 1.69,-4.3 4.02,-4.3c2.35,0 4.11,1.87 4.11,4.35c0,2.49 -1.7,4.3 -4.05,4.3zM1255.64,95.11h-3.57v-3.66c0,-0.13 -0.1,-0.23 -0.24,-0.23h-3.24c-0.13,0 -0.24,0.1 -0.24,0.23v3.66h-1.56c-0.13,0 -0.24,0.1 -0.24,0.24v2.79c0,0.13 0.11,0.23 0.24,0.23h1.56v7.22c0,2.92 1.45,4.4 4.32,4.4c1.16,0 2.13,-0.24 3.04,-0.76c0.07,-0.04 0.12,-0.12 0.12,-0.2v-2.66c0,-0.08 -0.05,-0.16 -0.12,-0.2c-0.07,-0.05 -0.15,-0.05 -0.23,-0.01c-0.62,0.31 -1.23,0.46 -1.9,0.46c-1.04,0 -1.51,-0.48 -1.51,-1.54v-6.71h3.57c0.13,0 0.24,-0.1 0.24,-0.23v-2.79c0.01,-0.13 -0.1,-0.24 -0.23,-0.24zM1268.09,95.12v-0.45c0,-1.32 0.5,-1.91 1.64,-1.91c0.68,0 1.22,0.14 1.83,0.34c0.07,0.03 0.15,0.01 0.21,-0.03c0.06,-0.05 0.1,-0.12 0.1,-0.19v-2.74c0,-0.1 -0.07,-0.2 -0.17,-0.23c-0.64,-0.19 -1.46,-0.39 -2.7,-0.39c-2.99,0 -4.58,1.69 -4.58,4.89v0.68h-1.56c-0.13,0 -0.24,0.11 -0.24,0.24v2.81c0,0.13 0.11,0.23 0.24,0.23h1.56v11.14c0,0.13 0.11,0.24 0.24,0.24h3.24c0.14,0 0.24,-0.11 0.24,-0.24v-11.14h3.03l4.65,11.14c-0.53,1.17 -1.05,1.4 -1.76,1.4c-0.57,0 -1.17,-0.17 -1.79,-0.51c-0.06,-0.03 -0.12,-0.03 -0.19,-0.02c-0.06,0.03 -0.11,0.07 -0.14,0.13l-1.1,2.42c-0.05,0.11 0,0.25 0.11,0.3c1.14,0.63 2.18,0.89 3.46,0.89c2.4,0 3.72,-1.11 4.89,-4.12l5.63,-14.55c0.03,-0.08 0.02,-0.16 -0.02,-0.22c-0.05,-0.07 -0.12,-0.11 -0.2,-0.11h-3.38c-0.1,0 -0.19,0.07 -0.22,0.16l-3.46,9.89l-3.79,-9.89c-0.04,-0.1 -0.13,-0.16 -0.23,-0.16h-5.54zM1260.87,95.11h-3.24c-0.13,0 -0.24,0.1 -0.24,0.24v14.16c0,0.13 0.11,0.24 0.24,0.24h3.24c0.13,0 0.24,-0.11 0.24,-0.24v-14.16c0,-0.03 0,-0.07 -0.02,-0.09c-0.01,-0.03 -0.03,-0.06 -0.05,-0.08c-0.02,-0.02 -0.05,-0.04 -0.08,-0.05c-0.02,-0.02 -0.06,-0.02 -0.09,-0.02zM1259.27,88.66c-1.29,0 -2.33,1.04 -2.33,2.33c0,1.28 1.04,2.32 2.33,2.32c1.28,0 2.33,-1.04 2.33,-2.32c0,-1.29 -1.05,-2.33 -2.33,-2.33zM1287.7,99.66c-1.28,0 -2.28,-1.03 -2.28,-2.28c0,-1.26 1.01,-2.3 2.3,-2.3c1.28,0 2.28,1.03 2.28,2.28c0,1.26 -1.01,2.3 -2.3,2.3zM1287.72,95.31c-1.17,0 -2.06,0.93 -2.06,2.07c0,1.14 0.88,2.05 2.04,2.05c1.17,0 2.06,-0.93 2.06,-2.07c0,-1.14 -0.88,-2.05 -2.04,-2.05zM1288.22,97.6l0.65,0.9h-0.55l-0.58,-0.83h-0.5v0.83h-0.45v-2.4h1.07c0.55,0 0.92,0.29 0.92,0.77c0,0.39 -0.23,0.63 -0.56,0.73v0zM1287.84,96.52h-0.6v0.76h0.6c0.29,0 0.47,-0.15 0.47,-0.38c0,-0.25 -0.18,-0.38 -0.47,-0.38v0z" fill="#B8BCC2"/>
</g>
</g></svg>