<svg viewBox="0 0 288 48" x="0" y="0" fill="none" xmlns="http://www.w3.org/2000/svg"><defs><filter id="filter18_d_135_701" x="-64" y="-52" width="176" height="176" filterUnits="userSpaceOnUse" color-interpolation-filters="sRGB" xmlns="http://www.w3.org/2000/svg">
<feFlood flood-opacity="0" result="BackgroundImageFix"/>
<feColorMatrix in="SourceAlpha" type="matrix" values="0 0 0 0 0 0 0 0 0 0 0 0 0 0 0 0 0 0 127 0" result="hardAlpha"/>
<feOffset dy="12"/>
<feGaussianBlur stdDeviation="32"/>
<feComposite in2="hardAlpha" operator="out"/>
<feColorMatrix type="matrix" values="0 0 0 0 0.108333 0 0 0 0 0.0993056 0 0 0 0 0.0993056 0 0 0 0.12 0"/>
<feBlend mode="normal" in2="BackgroundImageFix" result="effect1_dropShadow_135_701"/>
<feBlend mode="normal" in="SourceGraphic" in2="effect1_dropShadow_135_701" result="shape"/>
</filter><clipPath id="clip4_135_701" xmlns="http://www.w3.org/2000/svg">
<rect width="18" height="18" fill="white" transform="translate(75, 15)"/>
</clipPath><clipPath id="clip5_135_701" xmlns="http://www.w3.org/2000/svg">
<rect width="18" height="18" fill="white" transform="translate(195, 15)"/>
</clipPath><clipPath id="clip6_135_701" xmlns="http://www.w3.org/2000/svg">
<rect width="18" height="18" fill="white" transform="translate(255, 15)"/>
</clipPath></defs><g id="Social Media" xmlns="http://www.w3.org/2000/svg">
<g id="Social Media card_7" filter="url(#filter18_d_135_701)">
<rect x="0" y="0" width="48" height="48" rx="4" fill="currentColor" shape-rendering="crispEdges"/>
<g id="Social_6">
<path id="Vector_37" d="M28.487,14.25h-3.057c-1.814,0 -3.832,0.78 -3.832,3.46c0.009,0.93 0,1.83 0,2.83h-2.098v3.41h2.163v9.8h3.976v-9.87h2.624l0.237,-3.35h-2.93c0,0 0.007,-1.49 0,-1.92c0,-1.06 1.081,-1 1.146,-1c0.515,0 1.515,0 1.772,0v-3.36z" fill="white"/>
</g>
</g>
<g id="Social Media card_8">
<rect x="60" y="0" width="48" height="48" rx="4" fill="white"/>
<g id="Social_7" clip-path="url(#clip4_135_701)">
<path id="Vector_38" d="M75,24c0,-1.63 0.402,-3.14 1.206,-4.52c0.804,-1.38 1.896,-2.47 3.276,-3.27c1.38,-0.81 2.886,-1.21 4.518,-1.21c1.632,0 3.138,0.4 4.518,1.21c1.38,0.8 2.472,1.89 3.276,3.27c0.804,1.38 1.206,2.89 1.206,4.52c0,1.63 -0.402,3.14 -1.206,4.52c-0.804,1.38 -1.896,2.47 -3.276,3.27c-1.38,0.81 -2.886,1.21 -4.518,1.21c-1.632,0 -3.138,-0.4 -4.518,-1.21c-1.38,-0.8 -2.472,-1.89 -3.276,-3.27c-0.804,-1.38 -1.206,-2.89 -1.206,-4.52zM76.494,24c0,1.87 0.63,3.52 1.89,4.95c0.576,-1.13 1.488,-2.2 2.736,-3.22c1.248,-1.02 2.466,-1.66 3.654,-1.93c-0.18,-0.42 -0.354,-0.8 -0.522,-1.13c-2.064,0.66 -4.296,0.99 -6.696,0.99c-0.468,0 -0.816,-0.01 -1.044,-0.02c0,0.05 -0.003,0.11 -0.009,0.18c-0.006,0.07 -0.009,0.13 -0.009,0.18zM76.728,22.15c0.264,0.02 0.654,0.03 1.17,0.03c2.004,0 3.906,-0.27 5.706,-0.81c-0.912,-1.62 -1.914,-2.97 -3.006,-4.05c-0.948,0.48 -1.761,1.15 -2.439,2c-0.678,0.85 -1.155,1.79 -1.431,2.83zM79.41,29.92c1.356,1.06 2.886,1.59 4.59,1.59c0.888,0 1.77,-0.17 2.646,-0.51c-0.24,-2.05 -0.708,-4.04 -1.404,-5.96c-1.104,0.24 -2.217,0.85 -3.339,1.82c-1.122,0.97 -1.953,1.99 -2.493,3.06zM82.164,16.75c1.056,1.09 2.034,2.45 2.934,4.08c1.632,-0.68 2.862,-1.55 3.69,-2.61c-1.392,-1.15 -2.988,-1.73 -4.788,-1.73c-0.612,0 -1.224,0.09 -1.836,0.26zM85.746,22.11c0.18,0.38 0.384,0.87 0.612,1.46c0.888,-0.09 1.854,-0.13 2.898,-0.13c0.744,0 1.482,0.02 2.214,0.06c-0.096,-1.64 -0.684,-3.09 -1.764,-4.36c-0.78,1.16 -2.1,2.15 -3.96,2.97zM86.808,24.83c0.612,1.77 1.026,3.6 1.242,5.47c0.948,-0.61 1.722,-1.4 2.322,-2.36c0.6,-0.96 0.96,-2 1.08,-3.11c-0.876,-0.06 -1.674,-0.09 -2.394,-0.09c-0.66,0 -1.41,0.03 -2.25,0.09z" fill="currentColor"/>
</g>
</g>
<g id="Social Media card_9">
<rect x="120" y="0" width="48" height="48" rx="4" fill="white"/>
<g id="Social_8">
<path id="Vector_39" d="M142.263,23.03c0,0 1.703,-0.13 1.703,-2.1c0,-1.97 -1.393,-2.93 -3.158,-2.93h-5.808v11.02h5.808c0,0 3.546,0.11 3.546,-3.26c0,0 0.154,-2.73 -2.091,-2.73zM140.39,19.96h0.418c0,0 0.79,0 0.79,1.14c0,1.15 -0.465,1.32 -0.991,1.32h-3.048v-2.46zM140.644,27.06h-3.085v-2.95h3.249c0,0 1.177,-0.01 1.177,1.52c0,1.29 -0.879,1.42 -1.341,1.43zM149.082,20.8c-4.292,0 -4.288,4.24 -4.288,4.24c0,0 -0.295,4.21 4.288,4.21c0,0 3.819,0.21 3.819,-2.93h-1.964c0,0 0.066,1.18 -1.789,1.18c0,0 -1.965,0.13 -1.965,-1.91h5.784c0,0 0.632,-4.79 -3.885,-4.79zM147.162,24.11c0,0 0.239,-1.69 1.964,-1.69c1.724,0 1.702,1.69 1.702,1.69zM151.286,20.01h-4.605v-1.36h4.605z" fill="currentColor"/>
</g>
</g>
<g id="Social Media card_10">
<rect x="180" y="0" width="48" height="48" rx="4" fill="white"/>
<g id="Social_9" clip-path="url(#clip5_135_701)">
<path id="Vector_40" d="M201,24c0,-1.66 1.343,-3 3,-3c1.657,0 3,1.34 3,3c0,1.66 -1.343,3 -3,3c-1.657,0 -3,-1.34 -3,-3zM199.379,24c0,2.55 2.069,4.62 4.621,4.62c2.552,0 4.621,-2.07 4.621,-4.62c0,-2.55 -2.069,-4.62 -4.621,-4.62c-2.552,0 -4.621,2.07 -4.621,4.62zM207.724,19.2c0,0.59 0.484,1.08 1.081,1.08c0.596,0 1.08,-0.49 1.08,-1.08c0,-0.6 -0.484,-1.08 -1.08,-1.08c-0.597,0 -1.081,0.48 -1.081,1.08zM200.364,31.33c-0.878,-0.04 -1.355,-0.19 -1.672,-0.31c-0.42,-0.17 -0.719,-0.36 -1.035,-0.68c-0.315,-0.31 -0.51,-0.61 -0.673,-1.03c-0.124,-0.32 -0.27,-0.8 -0.31,-1.67c-0.043,-0.95 -0.052,-1.24 -0.052,-3.64c0,-2.4 0.009,-2.69 0.052,-3.64c0.04,-0.87 0.187,-1.35 0.31,-1.67c0.163,-0.42 0.358,-0.72 0.673,-1.03c0.315,-0.32 0.614,-0.51 1.035,-0.68c0.317,-0.12 0.794,-0.27 1.672,-0.31c0.948,-0.04 1.233,-0.05 3.636,-0.05c2.403,0 2.688,0.01 3.637,0.05c0.878,0.04 1.354,0.19 1.671,0.31c0.421,0.17 0.72,0.36 1.036,0.68c0.314,0.31 0.509,0.61 0.673,1.03c0.123,0.32 0.27,0.8 0.309,1.67c0.044,0.95 0.053,1.24 0.053,3.64c0,2.4 -0.009,2.69 -0.053,3.64c-0.039,0.87 -0.186,1.35 -0.309,1.67c-0.164,0.42 -0.359,0.72 -0.673,1.03c-0.315,0.32 -0.615,0.51 -1.036,0.68c-0.317,0.12 -0.793,0.27 -1.671,0.31c-0.949,0.04 -1.234,0.05 -3.637,0.05c-2.403,0 -2.688,-0.01 -3.636,-0.05zM200.289,15.05c-0.958,0.05 -1.612,0.2 -2.184,0.42c-0.592,0.23 -1.093,0.54 -1.594,1.04c-0.5,0.5 -0.809,1 -1.038,1.59c-0.223,0.58 -0.375,1.23 -0.418,2.19c-0.045,0.96 -0.055,1.27 -0.055,3.71c0,2.44 0.01,2.75 0.055,3.71c0.043,0.96 0.195,1.61 0.418,2.19c0.229,0.59 0.537,1.09 1.038,1.59c0.5,0.5 1.001,0.81 1.594,1.04c0.573,0.22 1.226,0.37 2.184,0.42c0.961,0.04 1.267,0.05 3.711,0.05c2.445,0 2.751,-0.01 3.711,-0.05c0.958,-0.05 1.612,-0.2 2.184,-0.42c0.592,-0.23 1.093,-0.54 1.594,-1.04c0.501,-0.5 0.808,-1 1.038,-1.59c0.223,-0.58 0.376,-1.23 0.418,-2.19c0.044,-0.96 0.054,-1.27 0.054,-3.71c0,-2.44 -0.01,-2.75 -0.054,-3.71c-0.043,-0.96 -0.195,-1.61 -0.418,-2.19c-0.23,-0.59 -0.537,-1.09 -1.038,-1.59c-0.5,-0.5 -1.002,-0.81 -1.593,-1.04c-0.573,-0.22 -1.227,-0.37 -2.185,-0.42c-0.959,-0.04 -1.266,-0.05 -3.71,-0.05c-2.445,0 -2.751,0.01 -3.712,0.05z" fill="currentColor"/>
</g>
</g>
<g id="Social Media card_11">
<rect x="240" y="0" width="48" height="48" rx="4" fill="white"/>
<g id="Social_10" clip-path="url(#clip6_135_701)">
<path id="Vector_41" d="M255,17.09c0,-0.61 0.203,-1.11 0.608,-1.5c0.406,-0.39 0.933,-0.59 1.581,-0.59c0.637,0 1.153,0.19 1.547,0.58c0.405,0.4 0.608,0.92 0.608,1.57c0,0.58 -0.197,1.06 -0.591,1.45c-0.406,0.4 -0.938,0.6 -1.599,0.6h-0.017c-0.637,0 -1.152,-0.2 -1.546,-0.6c-0.394,-0.4 -0.591,-0.9 -0.591,-1.51zM255.226,33v-12.15h3.857v12.15zM261.22,33h3.857v-6.78c0,-0.43 0.047,-0.75 0.139,-0.98c0.162,-0.42 0.409,-0.76 0.739,-1.05c0.33,-0.28 0.744,-0.43 1.242,-0.43c1.297,0 1.946,0.92 1.946,2.75v6.49h3.857v-6.96c0,-1.8 -0.405,-3.16 -1.216,-4.09c-0.811,-0.92 -1.882,-1.39 -3.215,-1.39c-1.494,0 -2.658,0.68 -3.492,2.02v0.04h-0.017l0.017,-0.04v-1.73h-3.857c0.023,0.39 0.035,1.6 0.035,3.62c0,2.03 -0.012,4.87 -0.035,8.53z" fill="currentColor"/>
</g>
</g>
</g></svg>